<svg width="190" height="79" viewBox="0 0 190 79" fill="none" xmlns="http://www.w3.org/2000/svg">
    <path
        d="M37.7 45.8L54.8 4H74.6L37.7 78.4L0.9 4H20.6L37.7 45.8ZM99.9352 38.3L95.7352 74H77.9352L89.2352 0.499999L119.035 43.2L148.935 0.499999L160.235 74H142.435L138.235 38.3L119.035 67.5L99.9352 38.3ZM170.298 67.2C170.298 64.6667 171.198 62.5 172.998 60.7C174.798 58.9 177.031 58 179.698 58C182.498 58 184.764 58.9 186.498 60.7C188.231 62.5 189.098 64.6667 189.098 67.2C189.098 69.7333 188.231 71.9 186.498 73.7C184.764 75.5 182.498 76.4 179.698 76.4C177.031 76.4 174.798 75.5 172.998 73.7C171.198 71.9 170.298 69.7333 170.298 67.2Z"
        fill="white" />
</svg>